<?xml version="1.0" encoding="utf-8"?>
<!-- Generator: Adobe Illustrator 22.0.1, SVG Export Plug-In . SVG Version: 6.00 Build 0)  -->
<svg version="1.1" xmlns="http://www.w3.org/2000/svg" xmlns:xlink="http://www.w3.org/1999/xlink" x="0px" y="0px"
	 viewBox="0 0 500 212" style="enable-background:new 0 0 500 212;" xml:space="preserve">
<style type="text/css">
	.st0{fill:none;stroke:#754C24;stroke-width:7;stroke-miterlimit:10;}
	.st1{fill:#FF0000;}
	.st2{display:none;}
	.st3{display:inline;}
</style>
<g id="Camada_1">
	<g>
		<path d="M230.1,51.7l-8,6.1c-4.4-5.7-9.7-10.1-15.9-13.1c-6.2-3-13-4.4-20.4-4.4c-8.1,0-15.6,1.9-22.5,5.8
			c-6.9,3.9-12.2,9.1-16,15.7c-3.8,6.6-5.7,13.9-5.7,22.1c0,12.4,4.2,22.7,12.7,31s19.2,12.4,32.1,12.4c14.2,0,26.1-5.6,35.7-16.7
			l8,6.1c-5.1,6.4-11.4,11.4-18.9,14.9c-7.6,3.5-16,5.3-25.3,5.3c-17.7,0-31.7-5.9-42-17.7c-8.6-10-12.9-22-12.9-36.1
			c0-14.8,5.2-27.3,15.6-37.5c10.4-10.1,23.5-15.2,39.1-15.2c9.5,0,18,1.9,25.7,5.6C218.9,39.7,225.2,45,230.1,51.7z"/>
		<path d="M248.8,30.3h9.7v42.4c3.9-5.1,8.2-9,12.9-11.6s9.8-3.8,15.2-3.8c5.6,0,10.6,1.4,14.9,4.3c4.3,2.9,7.6,6.7,9.6,11.5
			c2.1,4.8,3.1,12.3,3.1,22.6v38.6h-9.7V98.5c0-8.6-0.3-14.4-1-17.3c-1.2-5-3.4-8.7-6.5-11.2c-3.2-2.5-7.3-3.8-12.4-3.8
			c-5.8,0-11.1,1.9-15.7,5.8c-4.6,3.9-7.7,8.6-9.1,14.3c-0.9,3.7-1.4,10.5-1.4,20.4v27.5h-9.7V30.3z"/>
		<path d="M409.7,59.3v75h-9.5v-12.9c-4,4.9-8.6,8.6-13.6,11.1s-10.5,3.7-16.5,3.7c-10.6,0-19.7-3.8-27.2-11.6
			c-7.5-7.7-11.3-17.1-11.3-28.1c0-10.8,3.8-20,11.4-27.7c7.6-7.7,16.7-11.5,27.4-11.5c6.2,0,11.7,1.3,16.7,3.9s9.4,6.6,13.1,11.8
			V59.3H409.7z M371.1,66.7c-5.4,0-10.3,1.3-14.9,4c-4.5,2.6-8.2,6.4-10.8,11.1c-2.7,4.8-4,9.8-4,15.2c0,5.3,1.4,10.3,4.1,15.2
			c2.7,4.8,6.3,8.6,10.9,11.3c4.6,2.7,9.5,4,14.7,4c5.3,0,10.3-1.3,15-4c4.7-2.7,8.4-6.3,10.9-10.8c2.5-4.5,3.8-9.7,3.8-15.4
			c0-8.7-2.9-15.9-8.6-21.8C386.5,69.6,379.5,66.7,371.1,66.7z"/>
		<path d="M434.8,28.4c2.2,0,4.1,0.8,5.6,2.3c1.6,1.6,2.3,3.4,2.3,5.7c0,2.2-0.8,4-2.3,5.6c-1.6,1.6-3.4,2.3-5.6,2.3
			c-2.2,0-4-0.8-5.6-2.3c-1.6-1.6-2.3-3.4-2.3-5.6c0-2.2,0.8-4.1,2.3-5.7C430.8,29.2,432.6,28.4,434.8,28.4z M430,59.3h9.7v75H430
			V59.3z"/>
		<path d="M456.1,59.3h9.9v11c2.9-4.3,6-7.6,9.3-9.7c3.3-2.1,6.7-3.2,10.2-3.2c2.7,0,5.5,0.9,8.6,2.6l-5,8.1c-2-0.9-3.7-1.3-5.1-1.3
			c-3.2,0-6.3,1.3-9.3,4c-3,2.6-5.3,6.7-6.8,12.3c-1.2,4.3-1.8,12.9-1.8,25.9v25.4h-9.9V59.3z"/>
	</g>
	<g>
		<path d="M150.4,161.6l-0.1,2.8c-3.3-0.1-7-0.2-11.2-0.2c0.1,2.1,0.2,4.9,0.2,8.5c2.9,0,5.7,0,8.5-0.1v2.7
			c-2.7-0.1-5.5-0.1-8.5-0.1c0,4.8,0.1,8.4,0.2,10.7h-3.4c0.2-3.8,0.3-8.1,0.3-12.7c0-4.4-0.1-8.2-0.3-11.5H150.4z"/>
		<path d="M167.6,185.8l-2.9,0.1c-0.1-0.6-0.2-1.2-0.2-1.7h-0.2c-1.5,1.4-3.6,2.1-6.2,2.1c-1.4,0-2.7-0.4-3.7-1.3
			c-1-0.8-1.5-2-1.5-3.6c0-1.9,0.8-3.4,2.4-4.6c1.6-1.2,4.6-1.8,9-1.8c0-0.3,0.1-0.6,0.1-1c0-1.5-0.4-2.5-1.2-3
			c-0.8-0.5-2-0.8-3.7-0.8c-1.9,0-3.9,0.2-5.7,0.7l0.3-2.6c1.9-0.5,4-0.8,6.4-0.8c2.2,0,3.9,0.5,5.1,1.4c1.2,0.9,1.8,2.5,1.8,4.7
			c0,0.6,0,1.6-0.1,3.2c-0.1,1.5-0.1,2.5-0.1,3.1C167.1,182,167.3,184,167.6,185.8z M164.3,182.2c-0.1-1.9-0.1-3.6-0.1-5.1
			c-2.3,0-4.1,0.2-5.3,0.5c-2,0.6-3,1.8-3,3.5c0,1.7,1.2,2.5,3.6,2.5C161.5,183.7,163.1,183.2,164.3,182.2z"/>
		<path d="M189.2,176.2c0,2.7-0.8,5.1-2.3,7.1c-1.5,2-3.7,3-6.4,3c-2.3,0-3.8-0.4-4.6-1.2h-0.1l-0.5,0.7h-2.7
			c0.2-4.3,0.2-8.9,0.2-13.9c0-4.5-0.2-8.6-0.6-12.3l3.7-0.2c-0.1,2.1-0.2,5.5-0.2,10.1h0.1c1.2-1.4,3.1-2.1,5.8-2.1
			c2.3,0,4.1,0.9,5.5,2.6C188.5,171.8,189.2,173.8,189.2,176.2z M185.9,176.7c0-1.9-0.5-3.4-1.5-4.7c-1-1.3-2.3-1.9-4.1-1.9
			c-2.2,0-3.8,0.7-4.8,2c0,4.4,0.1,8,0.3,10.7c1,0.8,2.3,1.3,3.9,1.3c2,0,3.6-0.7,4.6-2.1C185.4,180.5,185.9,178.7,185.9,176.7z"/>
		<path d="M204.7,168.1l-0.8,3c-1-0.4-1.9-0.6-2.7-0.6c-2.3,0-3.8,1.1-4.5,3.3c0,5.7,0,9.7,0.1,11.9h-3.3c0.2-3.9,0.3-7,0.3-9.1
			c0-2.9-0.3-5.7-0.9-8.4l3.3-0.5c0.2,1.4,0.4,2.3,0.4,2.7h0.1c1.3-2,2.9-3,4.7-3C202.2,167.5,203.4,167.7,204.7,168.1z"/>
		<path d="M210.3,185.8H207c0.2-2.5,0.3-5.3,0.3-8.5c0-3.6-0.2-6.6-0.7-9l3.7-0.5c-0.1,2.6-0.2,5.8-0.2,9.5
			C210.1,180.3,210.1,183.1,210.3,185.8z M211.1,162.6c0,0.6-0.2,1.2-0.6,1.6c-0.4,0.5-1,0.7-1.7,0.7c-0.6,0-1.1-0.2-1.5-0.6
			s-0.5-0.9-0.5-1.5c0-0.6,0.2-1.2,0.6-1.6c0.4-0.5,1-0.7,1.7-0.7c0.6,0,1.1,0.2,1.4,0.6S211.1,162,211.1,162.6z"/>
		<path d="M228.7,182.9l-0.2,2.5c-1,0.6-2.3,0.9-4,0.9c-3.2,0-5.7-0.9-7.4-2.7c-1.7-1.8-2.5-3.9-2.5-6.4c0-2.7,0.9-4.9,2.7-6.8
			c1.8-1.9,4.1-2.9,7.1-2.9c1.5,0,2.7,0.1,3.6,0.4l-0.5,2.9c-1.3-0.5-2.6-0.7-4-0.7c-1.8,0-3.2,0.6-4.2,1.8c-1,1.2-1.6,2.8-1.6,4.6
			c0,2,0.6,3.7,1.9,5c1.2,1.3,3,2,5.3,2C225.8,183.6,227.1,183.4,228.7,182.9z"/>
		<path d="M246.4,185.8l-2.9,0.1c-0.1-0.6-0.2-1.2-0.2-1.7h-0.2c-1.5,1.4-3.6,2.1-6.2,2.1c-1.4,0-2.7-0.4-3.7-1.3
			c-1-0.8-1.5-2-1.5-3.6c0-1.9,0.8-3.4,2.4-4.6c1.6-1.2,4.6-1.8,9-1.8c0-0.3,0.1-0.6,0.1-1c0-1.5-0.4-2.5-1.2-3
			c-0.8-0.5-2-0.8-3.7-0.8c-1.9,0-3.9,0.2-5.7,0.7l0.3-2.6c1.9-0.5,4-0.8,6.4-0.8c2.2,0,3.9,0.5,5.1,1.4c1.2,0.9,1.8,2.5,1.8,4.7
			c0,0.6,0,1.6-0.1,3.2c-0.1,1.5-0.1,2.5-0.1,3.1C245.9,182,246,184,246.4,185.8z M243.1,182.2c-0.1-1.9-0.1-3.6-0.1-5.1
			c-2.3,0-4.1,0.2-5.3,0.5c-2,0.6-3,1.8-3,3.5c0,1.7,1.2,2.5,3.6,2.5C240.2,183.7,241.9,183.2,243.1,182.2z"/>
		<path d="M266.8,185.8h-3.4c0.3-3.3,0.4-6.8,0.4-10.7c0-1.9-0.4-3.2-1.2-3.9c-0.8-0.7-1.9-1-3.3-1c-1.8,0-3.4,0.6-4.9,1.9
			c0,4.2,0,8.8,0.1,13.7h-3.4c0.2-4.2,0.3-7.3,0.3-9.1c0-2.9-0.3-5.7-0.8-8.4l3.3-0.5l0.4,2.3h0.2c1.8-1.7,3.8-2.5,5.9-2.5
			c2.1,0,3.6,0.5,4.8,1.4c1.1,0.9,1.7,2.5,1.7,4.9c0,0.2,0,0.7,0,1.4c0,0.7,0,1.2,0,1.4C266.8,178.6,266.8,181.7,266.8,185.8z"/>
		<path d="M281.9,183.2l-0.2,2.4c-1,0.4-1.9,0.5-2.8,0.5c-2.2,0-3.8-0.6-4.6-1.7c-0.8-1.1-1.2-3.2-1.2-6.1c0-1.9,0-4.4,0-7.4
			c-0.7,0-1.7,0-3.1,0.1l0.1-2.7c1.2,0.1,2.2,0.1,3.2,0.1c0-0.7,0.1-2.5,0.2-5.3l2.9-0.3c-0.2,2.6-0.3,4.5-0.3,5.6
			c1.2,0,3-0.1,5.4-0.2l-0.1,2.8c-2.2-0.1-4-0.1-5.4-0.1c0,1.9,0,4,0,6.3c0,2.6,0.3,4.2,0.8,5.1c0.5,0.8,1.5,1.2,3,1.2
			C280.2,183.6,280.9,183.5,281.9,183.2z"/>
		<path d="M300.6,174.9c0,0.5,0,1.2-0.1,2.2l-12.8,0.2c0.1,1.8,0.8,3.3,2.1,4.5c1.3,1.2,3,1.8,5.1,1.8c1.9,0,3.6-0.2,5.3-0.7
			l-0.3,2.6c-1.2,0.5-3,0.7-5.3,0.7c-3.2,0-5.7-0.9-7.4-2.6s-2.5-3.9-2.5-6.4c0-2.7,0.8-5,2.3-7c1.5-2,3.6-2.9,6.2-2.9
			c2.4,0,4.2,0.7,5.5,2.1S300.6,172.7,300.6,174.9z M297.5,174.9c0-3.5-1.5-5.2-4.4-5.2c-3,0-4.7,1.8-5.3,5.4L297.5,174.9z"/>
		<path d="M329.1,185.8l-2.8,0.1c-0.1-0.5-0.1-1.1-0.1-1.7H326c-1.3,1.4-3.2,2.1-5.8,2.1c-2.4,0-4.2-0.9-5.6-2.6
			c-1.4-1.7-2.1-3.8-2.1-6.2c0-2.7,0.8-5.1,2.3-7.1c1.5-2,3.7-3,6.5-3c2,0,3.4,0.4,4.3,1.2h0.1c0-3.1-0.1-6.1-0.3-9l3.5-0.1
			c-0.2,3.1-0.4,7.3-0.4,12.4C328.8,177.1,328.9,181.7,329.1,185.8z M326.2,182.1c0-3.9-0.1-7.6-0.3-11.1c-1-0.8-2.3-1.2-3.8-1.2
			c-2.1,0-3.7,0.7-4.7,2.1c-1,1.4-1.6,3.1-1.6,5.2c0,1.9,0.5,3.5,1.5,4.8s2.4,1.9,4.1,1.9C323.6,183.8,325.2,183.2,326.2,182.1z"/>
		<path d="M349.3,174.9c0,0.5,0,1.2-0.1,2.2l-12.8,0.2c0.1,1.8,0.8,3.3,2.1,4.5c1.3,1.2,3,1.8,5.1,1.8c1.9,0,3.6-0.2,5.3-0.7
			l-0.3,2.6c-1.2,0.5-3,0.7-5.3,0.7c-3.2,0-5.7-0.9-7.4-2.6s-2.5-3.9-2.5-6.4c0-2.7,0.8-5,2.3-7c1.5-2,3.6-2.9,6.2-2.9
			c2.4,0,4.2,0.7,5.5,2.1S349.3,172.7,349.3,174.9z M346.2,174.9c0-3.5-1.5-5.2-4.4-5.2c-3,0-4.7,1.8-5.3,5.4L346.2,174.9z"/>
		<path d="M375.3,182.9l-0.2,2.5c-1,0.6-2.3,0.9-4,0.9c-3.2,0-5.7-0.9-7.4-2.7c-1.7-1.8-2.5-3.9-2.5-6.4c0-2.7,0.9-4.9,2.7-6.8
			s4.1-2.9,7.1-2.9c1.5,0,2.7,0.1,3.6,0.4l-0.5,2.9c-1.3-0.5-2.6-0.7-4-0.7c-1.8,0-3.2,0.6-4.2,1.8c-1,1.2-1.6,2.8-1.6,4.6
			c0,2,0.6,3.7,1.9,5c1.2,1.3,3,2,5.3,2C372.4,183.6,373.7,183.4,375.3,182.9z"/>
		<path d="M393,185.8l-2.9,0.1c-0.1-0.6-0.2-1.2-0.2-1.7h-0.2c-1.5,1.4-3.6,2.1-6.2,2.1c-1.4,0-2.7-0.4-3.7-1.3
			c-1-0.8-1.5-2-1.5-3.6c0-1.9,0.8-3.4,2.4-4.6s4.6-1.8,9-1.8c0-0.3,0.1-0.6,0.1-1c0-1.5-0.4-2.5-1.2-3c-0.8-0.5-2-0.8-3.7-0.8
			c-1.9,0-3.9,0.2-5.7,0.7l0.3-2.6c1.9-0.5,4-0.8,6.4-0.8c2.2,0,3.9,0.5,5.1,1.4c1.2,0.9,1.8,2.5,1.8,4.7c0,0.6,0,1.6-0.1,3.2
			s-0.1,2.5-0.1,3.1C392.5,182,392.6,184,393,185.8z M389.7,182.2c-0.1-1.9-0.1-3.6-0.1-5.1c-2.3,0-4.1,0.2-5.3,0.5
			c-2,0.6-3,1.8-3,3.5c0,1.7,1.2,2.5,3.6,2.5C386.8,183.7,388.5,183.2,389.7,182.2z"/>
		<path d="M413.7,185.8l-2.8,0.1c-0.1-0.5-0.1-1.1-0.1-1.7h-0.2c-1.3,1.4-3.2,2.1-5.8,2.1c-2.4,0-4.2-0.9-5.6-2.6
			c-1.4-1.7-2.1-3.8-2.1-6.2c0-2.7,0.8-5.1,2.3-7.1c1.5-2,3.7-3,6.5-3c2,0,3.4,0.4,4.3,1.2h0.1c0-3.1-0.1-6.1-0.3-9l3.5-0.1
			c-0.2,3.1-0.4,7.3-0.4,12.4C413.3,177.1,413.5,181.7,413.7,185.8z M410.7,182.1c0-3.9-0.1-7.6-0.3-11.1c-1-0.8-2.3-1.2-3.8-1.2
			c-2.1,0-3.7,0.7-4.7,2.1c-1,1.4-1.6,3.1-1.6,5.2c0,1.9,0.5,3.5,1.5,4.8s2.4,1.9,4.1,1.9C408.2,183.8,409.7,183.2,410.7,182.1z"/>
		<path d="M433.9,174.9c0,0.5,0,1.2-0.1,2.2l-12.8,0.2c0.1,1.8,0.8,3.3,2.1,4.5c1.3,1.2,3,1.8,5.1,1.8c1.9,0,3.6-0.2,5.3-0.7
			l-0.3,2.6c-1.2,0.5-3,0.7-5.3,0.7c-3.2,0-5.7-0.9-7.4-2.6s-2.5-3.9-2.5-6.4c0-2.7,0.8-5,2.3-7c1.5-2,3.6-2.9,6.2-2.9
			c2.4,0,4.2,0.7,5.5,2.1S433.9,172.7,433.9,174.9z M430.8,174.9c0-3.5-1.5-5.2-4.4-5.2c-3,0-4.7,1.8-5.3,5.4L430.8,174.9z"/>
		<path d="M441.5,185.8h-3.4c0.2-2.5,0.3-5.3,0.3-8.5c0-3.6-0.2-6.6-0.7-9l3.7-0.5c-0.1,2.6-0.2,5.8-0.2,9.5
			C441.3,180.3,441.3,183.1,441.5,185.8z M442.3,162.6c0,0.6-0.2,1.2-0.6,1.6c-0.4,0.5-1,0.7-1.7,0.7c-0.6,0-1.1-0.2-1.5-0.6
			c-0.4-0.4-0.5-0.9-0.5-1.5c0-0.6,0.2-1.2,0.6-1.6c0.4-0.5,1-0.7,1.7-0.7c0.6,0,1.1,0.2,1.4,0.6C442.1,161.5,442.3,162,442.3,162.6
			z"/>
		<path d="M457.7,168.1l-0.8,3c-1-0.4-1.9-0.6-2.7-0.6c-2.3,0-3.8,1.1-4.5,3.3c0,5.7,0,9.7,0.1,11.9h-3.3c0.2-3.9,0.3-7,0.3-9.1
			c0-2.9-0.3-5.7-0.9-8.4l3.3-0.5c0.2,1.4,0.4,2.3,0.4,2.7h0.1c1.3-2,2.9-3,4.7-3C455.2,167.5,456.4,167.7,457.7,168.1z"/>
		<path d="M473.9,185.8l-2.9,0.1c-0.1-0.6-0.2-1.2-0.2-1.7h-0.2c-1.5,1.4-3.6,2.1-6.2,2.1c-1.4,0-2.7-0.4-3.7-1.3
			c-1-0.8-1.5-2-1.5-3.6c0-1.9,0.8-3.4,2.4-4.6s4.6-1.8,9-1.8c0-0.3,0.1-0.6,0.1-1c0-1.5-0.4-2.5-1.2-3c-0.8-0.5-2-0.8-3.7-0.8
			c-1.9,0-3.9,0.2-5.7,0.7l0.3-2.6c1.9-0.5,4-0.8,6.4-0.8c2.2,0,3.9,0.5,5.1,1.4c1.2,0.9,1.8,2.5,1.8,4.7c0,0.6,0,1.6-0.1,3.2
			s-0.1,2.5-0.1,3.1C473.4,182,473.6,184,473.9,185.8z M470.6,182.2c-0.1-1.9-0.1-3.6-0.1-5.1c-2.3,0-4.1,0.2-5.3,0.5
			c-2,0.6-3,1.8-3,3.5c0,1.7,1.2,2.5,3.6,2.5C467.8,183.7,469.4,183.2,470.6,182.2z"/>
		<path d="M490.4,180.7c0,3.6-2.3,5.4-6.9,5.4c-2,0-4-0.2-5.7-0.6l0.6-2.7c1.6,0.6,3.4,0.9,5.2,0.9c2.7,0,4-0.8,4-2.3
			c0-0.7-0.3-1.3-0.9-1.8s-1.6-0.9-3-1.5c-1.8-0.7-3-1.4-3.8-2c-1.2-1-1.7-2.1-1.7-3.5c0-1.4,0.5-2.6,1.6-3.6c1.1-1,2.7-1.5,4.9-1.5
			c2.1,0,3.8,0.2,5.1,0.5l-0.6,2.7c-1.3-0.5-2.9-0.8-4.6-0.8c-2.4,0-3.6,0.7-3.6,2.1c0,0.7,0.3,1.3,0.8,1.7c0.5,0.4,1.6,0.9,3.1,1.6
			c1.7,0.7,2.9,1.3,3.7,1.9C489.8,178.2,490.4,179.4,490.4,180.7z"/>
	</g>
	<line class="st0" x1="89.8" y1="138.8" x2="88.3" y2="208.4"/>
	<polyline class="st0" points="89.9,138.2 99.7,7.3 92.2,7.3 26.3,136.7 	"/>
	<g>
		<path class="st1" d="M14.9,161.8c-1.8-1.7-3.3-3.8-4.5-6.1c-1.1-2.3-1.8-5.1-1.4-8c0.2-1.4,0.6-2.9,1.3-4.2
			c0.7-1.3,1.6-2.5,2.6-3.5c2-2,4.4-3.6,6.8-4.6c4.9-2.2,9.9-3.2,14.9-3.9c2.5-0.3,5-0.5,7.5-0.6c1.2,0,2.5-0.1,3.7-0.1l3.7,0
			c9.9,0.2,19.7,1.2,29.4,2.4l7.3,1c2.4,0.4,4.8,0.8,7.2,1.2c4.8,0.8,9.6,1.8,14.4,2.8l-0.9,4.9c-9.6-1.2-19.1-2.6-28.7-3.5
			c-9.6-1-19.2-1.6-28.7-1.5l-3.6,0c-1.2,0-2.4,0.1-3.5,0.1c-1.2,0.1-2.4,0-3.5,0.2c-1.2,0.1-2.3,0.2-3.5,0.3
			c-4.6,0.5-9.2,1.2-13.3,2.6c-1.1,0.3-2,0.8-3,1.2c-0.5,0.2-0.9,0.5-1.3,0.8l-0.7,0.4c-0.2,0.1-0.4,0.3-0.6,0.5
			c-1.6,1.2-2.8,2.7-3.4,4.6c-0.6,1.9-0.7,4.1-0.3,6.3c0.4,2.2,1.2,4.5,2.2,6.7L14.9,161.8z"/>
	</g>
</g>
<g id="Camada_2" class="st2">
	<g class="st3">
		<path d="M489.9,92.2l-84-84h-14.9v35.1c0,8.4-6.9,15.4-15.4,15.4h-80.1v-79.9c0-8.5,6.9-15.4,15.4-15.4h35.3v-14.9l-84.2-84
			c-5.9-6.2-15.6-6.2-21.8,0l-84,84v14.9h35.1c8.4,0,15.4,6.9,15.4,15.4v80.1h-79.9c-8.5,0-15.4-6.9-15.4-15.4V8.2H96.7l-84,84.2
			c-6.2,5.9-6.2,15.6,0,21.8l84,84h14.9v-35.1c0-8.5,6.9-15.4,15.4-15.4H207v79.9c0,8.5-6.9,15.4-15.4,15.4h-35.3v14.9l84.2,84
			c5.9,6.2,15.6,6.2,21.8,0l84-84V243h-35.1c-8.4,0-15.4-6.9-15.4-15.4v-80.1h79.9c8.5,0,15.4,6.9,15.4,15.4v35.3H406l84-84.2
			C496.1,108.1,496.1,98.4,489.9,92.2z M238.5,116V90.4h25.6V116H238.5z"/>
	</g>
</g>
</svg>
