<?xml version="1.0" encoding="utf-8"?>
<!-- Generator: Adobe Illustrator 22.0.1, SVG Export Plug-In . SVG Version: 6.00 Build 0)  -->
<svg version="1.1" id="Camada_2" xmlns="http://www.w3.org/2000/svg" xmlns:xlink="http://www.w3.org/1999/xlink" x="0px" y="0px"
	 viewBox="0 0 500 500" style="enable-background:new 0 0 500 500;" xml:space="preserve">
<g>
	<path d="M489.9,239.2l-84-84h-14.9v35.1c0,8.4-6.9,15.4-15.4,15.4h-80.1v-79.9c0-8.5,6.9-15.4,15.4-15.4h35.3V95.6l-84.2-84
		c-5.9-6.2-15.6-6.2-21.8,0l-84,84v14.9h35.1c8.4,0,15.4,6.9,15.4,15.4v80.1h-79.9c-8.5,0-15.4-6.9-15.4-15.4v-35.3H96.7l-84,84.2
		c-6.2,5.9-6.2,15.6,0,21.8l84,84h14.9v-35.1c0-8.5,6.9-15.4,15.4-15.4H207v79.9c0,8.5-6.9,15.4-15.4,15.4h-35.3v14.9l84.2,84
		c5.9,6.2,15.6,6.2,21.8,0l84-84V390h-35.1c-8.4,0-15.4-6.9-15.4-15.4v-80.1h79.9c8.5,0,15.4,6.9,15.4,15.4v35.3H406l84-84.2
		C496.1,255.1,496.1,245.4,489.9,239.2z M238.5,263v-25.6h25.6V263H238.5z"/>
</g>
</svg>
