<?xml version="1.0" encoding="utf-8"?>
<!-- Generator: Adobe Illustrator 22.0.1, SVG Export Plug-In . SVG Version: 6.00 Build 0)  -->
<svg version="1.1" id="Camada_1" xmlns="http://www.w3.org/2000/svg" xmlns:xlink="http://www.w3.org/1999/xlink" x="0px" y="0px"
	 viewBox="0 0 500 500" style="enable-background:new 0 0 500 500;" xml:space="preserve">
<style type="text/css">
	.st0{fill:#FFFFFF;}
	.st1{fill:#FBB03B;}
</style>
<g>
	<path class="st0" d="M177.6,496.1c-2.1,0-4.3-0.3-6.3-1c-76.9-24.9-137.8-85.5-163-162.3c-3.3-9.9,1.4-20.6,10.8-24.8
		c21.4-9.5,35.2-30.7,35.2-54.1c0-23.5-13.9-44.8-35.4-54.2C9.4,195.6,4.8,184.9,8,175C33,98,94,37,171,12c2-0.7,4.2-1,6.3-1
		c8,0,15.2,4.7,18.4,11.9c9.5,21.5,30.7,35.4,54.2,35.4c23.4,0,44.6-13.8,54.1-35.2c3.2-7.2,10.4-11.8,18.4-11.8
		c2.2,0,4.3,0.3,6.4,1c76.7,25.2,137.4,86.2,162.3,163c3.2,9.9-1.4,20.5-10.7,24.7c-21.1,9.6-34.8,30.8-34.8,54
		c0,23.1,13.6,44.3,34.7,53.9c9.2,4.2,13.8,14.8,10.6,24.7c-25.1,76.6-85.7,137.3-162.4,162.4c-2.1,0.7-4.2,1-6.4,1
		c-7.9,0-15.1-4.6-18.3-11.6c-9.6-21.1-30.8-34.7-53.9-34.7c-23.2,0-44.4,13.7-54,34.8C192.8,491.5,185.6,496.1,177.6,496.1z"/>
	<path class="st1" d="M177.3,12c7.6,0,14.5,4.4,17.5,11.3c9.6,21.9,31.3,36,55.2,36c23.8,0,45.4-14.1,55.1-35.8
		c3-6.8,9.9-11.2,17.5-11.2c2.1,0,4.1,0.3,6.1,1C405,38.3,465.4,99.1,490.2,175.6c3,9.4-1.3,19.5-10.1,23.5
		c-21.5,9.7-35.4,31.3-35.4,54.9c0,23.5,13.8,45,35.2,54.8c8.8,4,13.1,14.1,10,23.4c-25,76.3-85.4,136.8-161.7,161.7
		c-2,0.6-4,1-6.1,1c-7.5,0-14.3-4.3-17.4-11c-9.8-21.4-31.3-35.2-54.8-35.2c-23.6,0-45.1,13.9-54.9,35.4
		c-3.1,6.7-9.9,11.1-17.5,11.1c-2,0-4.1-0.3-6-1C95.1,469.4,34.3,409,9.2,332.5c-3.1-9.4,1.3-19.6,10.2-23.5
		c21.8-9.7,35.8-31.3,35.8-55.1c0-23.9-14.1-45.5-36-55.2c-8.9-3.9-13.4-14-10.3-23.5C33.9,98.6,94.6,37.9,171.3,13
		C173.2,12.3,175.3,12,177.3,12 M177.3,10c-2.2,0-4.4,0.3-6.6,1.1C93.3,36.2,32.2,97.3,7.1,174.7c-3.3,10.3,1.5,21.6,11.4,25.9
		c20.5,9,34.8,29.5,34.8,53.3c0,23.7-14.2,44.2-34.6,53.2c-9.9,4.4-14.7,15.7-11.3,26C32.7,410.2,93.8,471.1,171,496.1
		c2.2,0.7,4.4,1,6.6,1c8.1,0,15.8-4.6,19.3-12.3c9.1-20.2,29.5-34.2,53-34.2c23.5,0,43.8,14,53,34.1c3.5,7.6,11.1,12.2,19.2,12.2
		c2.2,0,4.5-0.3,6.7-1.1c77-25.2,137.8-86,163-163c3.3-10.2-1.4-21.4-11.1-25.9c-20.1-9.2-34.1-29.4-34.1-53c0-23.6,14-43.9,34.2-53
		c9.8-4.4,14.5-15.7,11.2-25.9c-25-77.2-85.8-138.3-162.9-163.7c-2.2-0.7-4.5-1.1-6.7-1.1c-8.1,0-15.9,4.6-19.3,12.4
		c-9.1,20.4-29.5,34.6-53.2,34.6c-23.8,0-44.3-14.3-53.3-34.8C193.2,14.7,185.5,10,177.3,10L177.3,10z"/>
</g>
</svg>
